<svg xmlns="http://www.w3.org/2000/svg" viewBox="0 0 225.22 76.1"><defs><style></style></defs><g id="Calque_2" data-name="Calque 2"><g id="Calque_1_-_copie" data-name="Calque 1 - copie"><path class="cls-1 logo" d="M34.21,18a6.74,6.74,0,0,0-2.81-4.16,9.65,9.65,0,0,0-5.52-1.46,9.88,9.88,0,0,0-8.32,3.8Q14.62,20,14.62,26.79t2.82,10.77q2.8,3.86,8.33,3.86,4.79,0,7.2-2A7,7,0,0,0,35.49,34H26V23.83H49.19v7.26a23.49,23.49,0,0,1-3,12.24,20.2,20.2,0,0,1-8.33,7.77,26.45,26.45,0,0,1-12.16,2.69,27,27,0,0,1-13.42-3.24,22.73,22.73,0,0,1-9-9.26A29.8,29.8,0,0,1,0,27,29.17,29.17,0,0,1,3.45,12.32a23.41,23.41,0,0,1,9.26-9.18A26.61,26.61,0,0,1,25.57,0a26.46,26.46,0,0,1,11.2,2.31,21.55,21.55,0,0,1,8.14,6.37A17.9,17.9,0,0,1,48.58,18Z"/><path class="cls-1" d="M52.62,53.08V.72h22.6a23,23,0,0,1,10.2,2.12A15.85,15.85,0,0,1,92.23,9a18,18,0,0,1,2.43,9.56,17,17,0,0,1-2.37,9.23,15.46,15.46,0,0,1-6.53,5.8L96.39,53.08H81l-9.2-17.29H66.84V53.08ZM66.84,24.75h5A10.21,10.21,0,0,0,77.7,23.3q2.13-1.44,2.13-4.79A5.63,5.63,0,0,0,77.7,13.6a9.82,9.82,0,0,0-5.85-1.53h-5Z"/><path class="cls-1" d="M178.91.72V53.08H164.7V.72Z"/><path class="cls-1" d="M182.37,53.08V45.2l24.75-33H182.47V.72h42.75V8.59l-24.75,33h24.65V53.08Z"/><path class="cls-1" d="M114.93,76.1h-9.62a3.49,3.49,0,0,1-3.49-3.49v-.28h16.6v.28A3.49,3.49,0,0,1,114.93,76.1Z"/><polygon class="cls-1" points="114.56 44.93 110.12 44.93 105.01 44.93 101.81 44.93 101.81 68.59 114.56 68.59 114.56 44.93"/><rect class="cls-1" x="115.92" y="44.93" width="2.5" height="23.66"/><path class="cls-1" d="M142.1,69.7V68.48l.49,0c.29,0,.44-.17.44-.42V61l-.86,0V59.72h4.11a4.84,4.84,0,0,1,3.45,1.17A4.57,4.57,0,0,1,151,64.36a7.44,7.44,0,0,1-.37,2.48,4.12,4.12,0,0,1-1,1.66,4.53,4.53,0,0,1-3.21,1.2Zm2.76-8.52v7.07h1.53a2.39,2.39,0,0,0,2-.92,4.34,4.34,0,0,0,.72-2.7q0-3.45-2.93-3.45Z"/><path class="cls-1" d="M165.8,69.7h-7.13V68.48l.5,0c.29,0,.43-.17.43-.42V61l-.85,0V59.72h6.87v2.49l-1.53.11v-.61a.6.6,0,0,0-.08-.35c0-.07-.17-.11-.36-.11h-2.22v2.57h3.47v1.53h-3.47v2.8h2.42c.18,0,.29,0,.34-.11a.7.7,0,0,0,.08-.37v-.75l1.53.11Z"/><path class="cls-1" d="M176.61,68.35q1.8,0,1.8-1.44a1.19,1.19,0,0,0-.79-1.12,6.73,6.73,0,0,0-1.09-.38,10.24,10.24,0,0,1-1.11-.37,4.88,4.88,0,0,1-.89-.52,2.37,2.37,0,0,1-.89-2,2.63,2.63,0,0,1,1-2.16,3.74,3.74,0,0,1,2.49-.79,6.67,6.67,0,0,1,2.85.62v2.25l-1.53.1v-.87a.69.69,0,0,0-.06-.33c-.11-.19-.46-.28-1-.28a2.21,2.21,0,0,0-1.32.31,1.13,1.13,0,0,0-.43,1,1.15,1.15,0,0,0,.36.84,1.76,1.76,0,0,0,.71.39l1,.33a7.13,7.13,0,0,1,.94.36,4.17,4.17,0,0,1,.86.54,2.41,2.41,0,0,1,.92,2.08,2.7,2.7,0,0,1-1,2.22,4.17,4.17,0,0,1-2.67.81,7,7,0,0,1-3-.61V66.91l1.53-.11v.91a.64.64,0,0,0,.06.33c0,.08.16.14.37.21A3.57,3.57,0,0,0,176.61,68.35Z"/><path class="cls-1" d="M188.84,67.94V61L188,61V59.72h3.63v1.22l-.49,0a.44.44,0,0,0-.44.48v6.92l.86,0V69.7h-3.63V68.48l.49,0a.63.63,0,0,0,.33-.13A.51.51,0,0,0,188.84,67.94Z"/><path class="cls-1" d="M207.09,66.2v2.72a6,6,0,0,1-3.46,1,4.12,4.12,0,0,1-3.23-1.3,5.59,5.59,0,0,1-1.17-3.85,6.35,6.35,0,0,1,.3-2,4.63,4.63,0,0,1,.76-1.49,4.41,4.41,0,0,1,1.1-1,5.29,5.29,0,0,1,2.73-.71,6.66,6.66,0,0,1,2.84.62v2.55l-1.53.1V61.64a.69.69,0,0,0-.06-.33c-.11-.19-.57-.28-1.37-.28q-2.9,0-2.89,3.58,0,3.78,2.61,3.78a2.92,2.92,0,0,0,1.59-.36V65.79h0l-1.15,0V64.48h3.73v1.2l-.34,0a.64.64,0,0,0-.34.12A.51.51,0,0,0,207.09,66.2Z"/><path class="cls-1" d="M215.33,69.7V68.48l.54,0a.38.38,0,0,0,.39-.42V61l-.86,0V59.72h2.7l4.25,6.89h0V61l-1,0V59.72h3.66v1.22l-.54,0c-.24,0-.36.18-.36.47V69.7h-1.76l-4.33-7h0v5.67l1,0V69.7Z"/><polygon class="cls-1" points="161.04 12.17 161.04 0.72 124.22 0.72 124.22 16.31 135.81 53.08 138.44 53.08 138.44 32.63 158.79 32.63 158.79 21.17 138.44 21.17 138.44 12.17 161.04 12.17"/><path class="cls-1" d="M111.07,17a.8.8,0,0,0-1.54,0l-5.69,17.63H116.4Z"/></g></g></svg>