<svg xmlns="http://www.w3.org/2000/svg" viewBox="0 0 454.7 545.54"><defs><style>.cls-2{fill:#242424}.cls-3{fill:#fefefe}</style></defs><g id="Calque_2" data-name="Calque 2"><g id="Calque_1-2" data-name="Calque 1"><g id="SkgNTy.tif"><path d="M91.38 271.36l9.17-64.18c4.84-33.92 9.73-67.83 14.45-101.77a18.27 18.27 0 015.39-11.25q46.12-45.73 91.89-91.85c2.82-2.84 4.3-3.25 7.36-.17q58.85 59.16 118 118c2.86 2.85 2.61 4.31-.1 7q-33.54 33.24-66.82 66.72c-4.73 4.73-4.73 4.73-.18 9.27q45.76 45.76 91.59 91.45c3.11 3.09 3.52 4.39-.56 7.09q-71 47-141.7 94.39c-2.83 1.9-4.36 2.07-7-.55q-59.39-59.7-119-119.16c-1.31-1.35-3.4-2.42-2.49-4.99z" fill="#00d0b1"/><path class="cls-2" d="M308.57 474.36c7.57-13.64 14.42-26.3 22.09-39.54 3-5 7.49-7.3 13.33-7.24 7.15.08 10.78 3.5 10.95 10.64.07 32.32 0 64.65 0 97 0 6.46-3.39 9.39-10.62 9.29s-10.21-2.88-10.22-9.26V471.2c-1.93.06-2 1.71-2.52 2.69-5.21 9.09-10.26 18.27-15.5 27.33-4.32 7.47-11.13 7.36-15.25-.22-5.69-10.46-11.25-21-17.76-31.33v66.16c0 5.85-3.29 8.6-10.18 8.68s-10.55-2.76-10.56-8.42q-.07-48.48 0-97c0-4.75 1-9.15 6.3-10.72 10.91-3.35 16.87 3 21.39 12.21zM59.1 481.17c14.41 7.19 17.62 15.08 15.4 36.57-1.8 17.39-12.56 26.39-30.21 26.71-11.32.21-22.64.14-34 0C2.27 544.42 0 542 0 534v-97.36c0-5.76 1.83-8.63 7.13-8.82 13.46-.49 27-1.35 40.4.29 19 2.34 27.54 15.24 24.09 34.55-1.62 8.95-4.26 12.93-12.52 18.51zM166.12 474.57c-1.34 31 9 65.58-32.38 70.57a49.72 49.72 0 01-23.12-2.49C98 538.18 91.06 529.12 90 515.94c-1.6-26.09-.23-52.26-.62-78.39 0-7.31 2.11-9.77 9.33-9.85 9.05-.09 11.72 2.13 11.56 10.64-.4 22.14-.13 44.29-.13 66.43-1.33 15.91 9.19 27.22 25.31 21.23 6.41-2.32 9.43-7.31 9.61-13.81.54-25.13.22-50.28.32-75.41 0-6.72 3-9.22 10.59-9.17 7.38.06 10.14 2.48 10.15 9q.03 18.99 0 37.96zM410.58 426.63c8.31 0 12 2.8 14.47 10.74q14.46 47.11 28.95 94.23c2 6.65-.07 10-7.61 12.16-6.8 2-10.37.24-12.19-6.06-1.48-5.1-3-10.2-4.25-15.36-.62-2.5-1.74-3.44-4.45-3.39-9.81.17-19.64.23-29.45 0-3.28-.09-4.28 1.37-5 4-1.32 5.14-2.77 10.25-4.26 15.35-1.68 5.74-5.42 7.38-12.16 5.46-7.15-2-9.51-5.39-7.72-11.24q14.68-48.09 29.43-96.15c2.15-6.98 6.32-9.77 14.24-9.74zM185 486.1c0-16.64.14-33.29-.08-49.93-.07-4.76 2-7 6.26-8.12 9.53-2.46 14.68 1.41 14.68 11.13 0 27.3.12 54.6-.13 81.9 0 4.57 1.29 5.5 5.55 5.37 10.48-.32 21-.14 31.46-.09 5.59 0 8.16 2.81 8.26 8.77.1 6.15-2.67 9.36-8.26 9.38-15.65 0-31.3.06-46.95 0-8.71 0-10.79-2.23-10.79-11z"/><path class="cls-3" d="M20.71 507.49c0-5 .1-10 0-15-.06-2.3.54-3.26 3-3.18 5.81.2 11.65 0 17.46.23 6.93.34 11.15 4 12.46 10.74a37.86 37.86 0 010 14.39c-1.31 6.84-5.13 10.56-12.13 11.22-5.94.56-12 .22-17.94.46-2.71.11-2.88-1.38-2.86-3.43.05-5.12.01-10.28.01-15.43zM21.07 459.19c0-4.3-1.7-10.07.44-12.51 2.51-2.88 8.43-.69 12.86-.94 9.66-.85 17.33 3.11 16.84 14.31-.24 8.08-4.28 12.45-12.15 12.77-5 .21-10 0-15 .15-2.52.09-3.61-.58-3.44-3.3.21-3.48.05-7 .05-10.48zM424.38 502.67h-25c-1.86 0-2.81-.28-2.17-2.5 4.35-15.07 8.63-30.17 13.28-46.5z"/></g></g></g></svg>