<svg height="666.667" viewBox="0 0 17639 17639" width="666.667" xmlns="http://www.w3.org/2000/svg" shape-rendering="geometricPrecision" text-rendering="geometricPrecision" image-rendering="optimizeQuality" fill-rule="evenodd" clip-rule="evenodd"><path fill="#99c4cd" d="M1082 1129h15475v15381H1082z"/><path fill="#252653" d="M2379 2418h12881v12803H2379z"/><path d="M9792 8383l3 4047 1408 7 5-3480-5-154c510-446 841-593 1540-576 57 1 74 1 74-69V7135c5-181-35-230-242-223-555 18-716 63-1101 389-83 70-325 361-325 361 0-353-80-593-178-664-67-49-84-46-182-46h-187l-780-11c-86 15-92 35-89 133 10 442 59 754 59 1309zM4821 5348v23c3 906 19 5944 22 6899v39c-1 139 103 114 147 113l3682-10c148-3 183-49 203-140l189-951c14-67 14-150-115-144H6260V5337c-3-59 9-139-121-135l-1198 28h-27c-111 6-90 53-93 118z" fill="#99c4cd"/></svg>